<!-- Feather Icons SVG Sprite - Inline for Offline Use -->
<svg xmlns="http://www.w3.org/2000/svg" style="display: none;">
  
  <!-- User Icon -->
  <symbol id="icon-user" viewBox="0 0 24 24">
    <path d="M20 21v-2a4 4 0 0 0-4-4H8a4 4 0 0 0-4 4v2"></path>
    <circle cx="12" cy="7" r="4"></circle>
  </symbol>
  
  <!-- Lock Icon -->
  <symbol id="icon-lock" viewBox="0 0 24 24">
    <rect x="3" y="11" width="18" height="11" rx="2" ry="2"></rect>
    <path d="M7 11V7a5 5 0 0 1 10 0v4"></path>
  </symbol>
  
  <!-- Home Icon -->
  <symbol id="icon-home" viewBox="0 0 24 24">
    <path d="M3 9l9-7 9 7v11a2 2 0 0 1-2 2H5a2 2 0 0 1-2-2z"></path>
    <polyline points="9 22 9 12 15 12 15 22"></polyline>
  </symbol>
  
  <!-- Package Icon (for products) -->
  <symbol id="icon-package" viewBox="0 0 24 24">
    <line x1="16.5" y1="9.4" x2="7.5" y2="4.21"></line>
    <path d="M21 16V8a2 2 0 0 0-1-1.73l-7-4a2 2 0 0 0-2 0l-7 4A2 2 0 0 0 3 8v8a2 2 0 0 0 1 1.73l7 4a2 2 0 0 0 2 0l7-4A2 2 0 0 0 21 16z"></path>
    <polyline points="3.27 6.96 12 12.01 20.73 6.96"></polyline>
    <line x1="12" y1="22.08" x2="12" y2="12"></line>
  </symbol>
  
  <!-- Smartphone Icon -->
  <symbol id="icon-smartphone" viewBox="0 0 24 24">
    <rect x="5" y="2" width="14" height="20" rx="2" ry="2"></rect>
    <line x1="12" y1="18" x2="12.01" y2="18"></line>
  </symbol>
  
  <!-- Truck Icon (for motorcycles) -->
  <symbol id="icon-truck" viewBox="0 0 24 24">
    <rect x="1" y="3" width="15" height="13"></rect>
    <polygon points="16 8 20 8 23 11 23 16 16 16 16 8"></polygon>
    <circle cx="5.5" cy="18.5" r="2.5"></circle>
    <circle cx="18.5" cy="18.5" r="2.5"></circle>
  </symbol>
  
  <!-- Calendar Icon -->
  <symbol id="icon-calendar" viewBox="0 0 24 24">
    <rect x="3" y="4" width="18" height="18" rx="2" ry="2"></rect>
    <line x1="16" y1="2" x2="16" y2="6"></line>
    <line x1="8" y1="2" x2="8" y2="6"></line>
    <line x1="3" y1="10" x2="21" y2="10"></line>
  </symbol>
  
  <!-- Dollar Sign Icon -->
  <symbol id="icon-dollar" viewBox="0 0 24 24">
    <line x1="12" y1="1" x2="12" y2="23"></line>
    <path d="M17 5H9.5a3.5 3.5 0 0 0 0 7h5a3.5 3.5 0 0 1 0 7H6"></path>
  </symbol>
  
  <!-- Dice Icon -->
  <symbol id="icon-dice" viewBox="0 0 24 24">
    <rect x="3" y="3" width="18" height="18" rx="2" ry="2"></rect>
    <circle cx="8.5" cy="8.5" r="1.5"></circle>
    <circle cx="15.5" cy="8.5" r="1.5"></circle>
    <circle cx="8.5" cy="15.5" r="1.5"></circle>
    <circle cx="15.5" cy="15.5" r="1.5"></circle>
    <circle cx="12" cy="12" r="1.5"></circle>
  </symbol>
  
  <!-- Printer Icon -->
  <symbol id="icon-printer" viewBox="0 0 24 24">
    <polyline points="6 9 6 2 18 2 18 9"></polyline>
    <path d="M6 18H4a2 2 0 0 1-2-2v-5a2 2 0 0 1 2-2h16a2 2 0 0 1 2 2v5a2 2 0 0 1-2 2h-2"></path>
    <rect x="6" y="14" width="12" height="8"></rect>
  </symbol>
  
  <!-- Check Circle Icon -->
  <symbol id="icon-check-circle" viewBox="0 0 24 24">
    <path d="M22 11.08V12a10 10 0 1 1-5.93-9.14"></path>
    <polyline points="22 4 12 14.01 9 11.01"></polyline>
  </symbol>
  
  <!-- Alert Circle Icon -->
  <symbol id="icon-alert-circle" viewBox="0 0 24 24">
    <circle cx="12" cy="12" r="10"></circle>
    <line x1="12" y1="8" x2="12" y2="12"></line>
    <line x1="12" y1="16" x2="12.01" y2="16"></line>
  </symbol>
  
  <!-- X Icon (close) -->
  <symbol id="icon-x" viewBox="0 0 24 24">
    <line x1="18" y1="6" x2="6" y2="18"></line>
    <line x1="6" y1="6" x2="18" y2="18"></line>
  </symbol>
  
  <!-- Plus Icon -->
  <symbol id="icon-plus" viewBox="0 0 24 24">
    <line x1="12" y1="5" x2="12" y2="19"></line>
    <line x1="5" y1="12" x2="19" y2="12"></line>
  </symbol>
  
  <!-- Edit Icon -->
  <symbol id="icon-edit" viewBox="0 0 24 24">
    <path d="M11 4H4a2 2 0 0 0-2 2v14a2 2 0 0 0 2 2h14a2 2 0 0 0 2-2v-7"></path>
    <path d="M18.5 2.5a2.121 2.121 0 0 1 3 3L12 15l-4 1 1-4 9.5-9.5z"></path>
  </symbol>
  
  <!-- Trash Icon -->
  <symbol id="icon-trash" viewBox="0 0 24 24">
    <polyline points="3 6 5 6 21 6"></polyline>
    <path d="M19 6v14a2 2 0 0 1-2 2H7a2 2 0 0 1-2-2V6m3 0V4a2 2 0 0 1 2-2h4a2 2 0 0 1 2 2v2"></path>
  </symbol>
  
  <!-- Users Icon -->
  <symbol id="icon-users" viewBox="0 0 24 24">
    <path d="M17 21v-2a4 4 0 0 0-4-4H5a4 4 0 0 0-4 4v2"></path>
    <circle cx="9" cy="7" r="4"></circle>
    <path d="M23 21v-2a4 4 0 0 0-3-3.87"></path>
    <path d="M16 3.13a4 4 0 0 1 0 7.75"></path>
  </symbol>
  
  <!-- Clock Icon -->
  <symbol id="icon-clock" viewBox="0 0 24 24">
    <circle cx="12" cy="12" r="10"></circle>
    <polyline points="12 6 12 12 16 14"></polyline>
  </symbol>
  
  <!-- Log Out Icon -->
  <symbol id="icon-log-out" viewBox="0 0 24 24">
    <path d="M9 21H5a2 2 0 0 1-2-2V5a2 2 0 0 1 2-2h4"></path>
    <polyline points="16 17 21 12 16 7"></polyline>
    <line x1="21" y1="12" x2="9" y2="12"></line>
  </symbol>
  
  <!-- Settings Icon -->
  <symbol id="icon-settings" viewBox="0 0 24 24">
    <circle cx="12" cy="12" r="3"></circle>
    <path d="M12 1v6m0 6v6m8.66-13.66l-4.24 4.24m-4.24 4.24l-4.24 4.24M23 12h-6m-6 0H1m17.66 8.66l-4.24-4.24m-4.24-4.24l-4.24-4.24"></path>
  </symbol>
  
  <!-- Download Icon -->
  <symbol id="icon-download" viewBox="0 0 24 24">
    <path d="M21 15v4a2 2 0 0 1-2 2H5a2 2 0 0 1-2-2v-4"></path>
    <polyline points="7 10 12 15 17 10"></polyline>
    <line x1="12" y1="15" x2="12" y2="3"></line>
  </symbol>
  
  <!-- Trash-2 Icon -->
  <symbol id="icon-trash-2" viewBox="0 0 24 24">
    <polyline points="3 6 5 6 21 6"></polyline>
    <path d="M19 6v14a2 2 0 0 1-2 2H7a2 2 0 0 1-2-2V6m3 0V4a2 2 0 0 1 2-2h4a2 2 0 0 1 2 2v2"></path>
    <line x1="10" y1="11" x2="10" y2="17"></line>
    <line x1="14" y1="11" x2="14" y2="17"></line>
  </symbol>

  <!-- Motorcycle Icon -->
  <symbol id="icon-motorcycle" viewBox="0 0 24 24">
    <circle cx="5.5" cy="17.5" r="3.5"></circle>
    <circle cx="18.5" cy="17.5" r="3.5"></circle>
    <path d="M15 6h-5l-3 4h-4v2h2l2-4h8z"></path>
    <path d="M18.5 17.5a3.5 3.5 0 1 0 0-7 3.5 3.5 0 0 0 0 7z" fill="none" stroke="currentColor"></path>
    <path d="M5.5 17.5a3.5 3.5 0 1 0 0-7 3.5 3.5 0 0 0 0 7z" fill="none" stroke="currentColor"></path>
  </symbol>
  
  <!-- Arrow Left Icon -->
  <symbol id="icon-arrow-left" viewBox="0 0 24 24">
    <line x1="19" y1="12" x2="5" y2="12"></line>
    <polyline points="12 19 5 12 12 5"></polyline>
  </symbol>
  
  <!-- Grid Icon (Dashboard) -->
  <symbol id="icon-grid" viewBox="0 0 24 24">
    <rect x="3" y="3" width="7" height="7"></rect>
    <rect x="14" y="3" width="7" height="7"></rect>
    <rect x="14" y="14" width="7" height="7"></rect>
    <rect x="3" y="14" width="7" height="7"></rect>
  </symbol>
  
  <!-- CPU Icon (Electrodomesticos) -->
  <symbol id="icon-cpu" viewBox="0 0 24 24">
    <rect x="4" y="4" width="16" height="16" rx="2" ry="2"></rect>
    <rect x="9" y="9" width="6" height="6"></rect>
    <line x1="9" y1="1" x2="9" y2="4"></line>
    <line x1="15" y1="1" x2="15" y2="4"></line>
    <line x1="9" y1="20" x2="9" y2="23"></line>
    <line x1="15" y1="20" x2="15" y2="23"></line>
    <line x1="20" y1="9" x2="23" y2="9"></line>
    <line x1="20" y1="14" x2="23" y2="14"></line>
    <line x1="1" y1="9" x2="4" y2="9"></line>
    <line x1="1" y1="14" x2="4" y2="14"></line>
  </symbol>
  
  <!-- Save Icon -->
  <symbol id="icon-save" viewBox="0 0 24 24">
    <path d="M19 21H5a2 2 0 0 1-2-2V5a2 2 0 0 1 2-2h11l5 5v11a2 2 0 0 1-2 2z"></path>
    <polyline points="17 21 17 13 7 13 7 21"></polyline>
    <polyline points="7 3 7 8 15 8"></polyline>
  </symbol>
  
  <!-- Shuffle Icon -->
  <symbol id="icon-shuffle" viewBox="0 0 24 24">
    <polyline points="16 3 21 3 21 8"></polyline>
    <line x1="4" y1="20" x2="21" y2="3"></line>
    <polyline points="21 16 21 21 16 21"></polyline>
    <line x1="15" y1="15" x2="21" y2="21"></line>
    <line x1="4" y1="4" x2="9" y2="9"></line>
  </symbol>
  
  <!-- File Text Icon -->
  <symbol id="icon-file-text" viewBox="0 0 24 24">
    <path d="M14 2H6a2 2 0 0 0-2 2v16a2 2 0 0 0 2 2h12a2 2 0 0 0 2-2V8z"></path>
    <polyline points="14 2 14 8 20 8"></polyline>
    <line x1="16" y1="13" x2="8" y2="13"></line>
    <line x1="16" y1="17" x2="8" y2="17"></line>
    <polyline points="10 9 9 9 8 9"></polyline>
  </symbol>
  
  <!-- User Plus Icon -->
  <symbol id="icon-user-plus" viewBox="0 0 24 24">
    <path d="M16 21v-2a4 4 0 0 0-4-4H5a4 4 0 0 0-4 4v2"></path>
    <circle cx="8.5" cy="7" r="4"></circle>
    <line x1="20" y1="8" x2="20" y2="14"></line>
    <line x1="23" y1="11" x2="17" y2="11"></line>
  </symbol>
  
  <!-- Trending Up Icon -->
  <symbol id="icon-trending-up" viewBox="0 0 24 24">
    <polyline points="23 6 13.5 15.5 8.5 10.5 1 18"></polyline>
    <polyline points="17 6 23 6 23 12"></polyline>
  </symbol>
  
  <!-- Credit Card Icon -->
  <symbol id="icon-credit-card" viewBox="0 0 24 24">
    <rect x="1" y="4" width="22" height="16" rx="2" ry="2"></rect>
    <line x1="1" y1="10" x2="23" y2="10"></line>
  </symbol>

  <!-- Refresh Icon -->
  <symbol id="icon-refresh-cw" viewBox="0 0 24 24">
    <polyline points="23 4 23 10 17 10"></polyline>
    <polyline points="1 20 1 14 7 14"></polyline>
    <path d="M3.51 9a9 9 0 0 1 14.85-3.36L23 10M1 14l4.64 4.36A9 9 0 0 0 20.49 15"></path>
  </symbol>

  <!-- Dollar Sign Icon -->
  <symbol id="icon-dollar-sign" viewBox="0 0 24 24">
    <line x1="12" y1="1" x2="12" y2="23"></line>
    <path d="M17 5H9.5a3.5 3.5 0 0 0 0 7h5a3.5 3.5 0 0 1 0 7H6"></path>
  </symbol>

  <!-- Alert Triangle Icon -->
  <symbol id="icon-alert-triangle" viewBox="0 0 24 24">
    <path d="M10.29 3.86L1.82 18a2 2 0 0 0 1.71 3h16.94a2 2 0 0 0 1.71-3L13.71 3.86a2 2 0 0 0-3.42 0z"></path>
    <line x1="12" y1="9" x2="12" y2="13"></line>
    <line x1="12" y1="17" x2="12.01" y2="17"></line>
  </symbol>

  <!-- Check Icon -->
  <symbol id="icon-check" viewBox="0 0 24 24">
    <polyline points="20 6 9 17 4 12"></polyline>
  </symbol>

  <!-- Hash Icon -->
  <symbol id="icon-hash" viewBox="0 0 24 24">
    <line x1="4" y1="9" x2="20" y2="9"></line>
    <line x1="4" y1="15" x2="20" y2="15"></line>
    <line x1="10" y1="3" x2="8" y2="21"></line>
    <line x1="16" y1="3" x2="14" y2="21"></line>
  </symbol>

  <!-- Map Pin Icon -->
  <symbol id="icon-map-pin" viewBox="0 0 24 24">
    <path d="M21 10c0 7-9 13-9 13s-9-6-9-13a9 9 0 0 1 18 0z"></path>
    <circle cx="12" cy="10" r="3"></circle>
  </symbol>

  <!-- Phone Icon -->
  <symbol id="icon-phone" viewBox="0 0 24 24">
    <path d="M22 16.92v3a2 2 0 0 1-2.18 2 19.79 19.79 0 0 1-8.63-3.07A19.5 19.5 0 0 1 4.69 13a19.79 19.79 0 0 1-3.07-8.67A2 2 0 0 1 3.6 2.18h3a2 2 0 0 1 2 1.72c.127.96.361 1.903.7 2.81a2 2 0 0 1-.45 2.11L7.91 9.91a16 16 0 0 0 6.1 6.1l1.27-1.27a2 2 0 0 1 2.11-.45c.907.339 1.85.573 2.81.7A2 2 0 0 1 22 16.92z"></path>
  </symbol>

  <!-- Eye Icon -->
  <symbol id="icon-eye" viewBox="0 0 24 24">
    <path d="M1 12s4-8 11-8 11 8 11 8-4 8-11 8-11-8-11-8z"></path>
    <circle cx="12" cy="12" r="3"></circle>
  </symbol>

  <!-- Arrow Right Icon -->
  <symbol id="icon-arrow-right" viewBox="0 0 24 24">
    <line x1="5" y1="12" x2="19" y2="12"></line>
    <polyline points="12 5 19 12 12 19"></polyline>
  </symbol>

  <!-- Search Icon -->
  <symbol id="icon-search" viewBox="0 0 24 24">
    <circle cx="11" cy="11" r="8"></circle>
    <line x1="21" y1="21" x2="16.65" y2="16.65"></line>
  </symbol>

</svg>
